<?xml version="1.0" standalone="no"?>
<!DOCTYPE svg PUBLIC "-//W3C//DTD SVG 20010904//EN"
 "http://www.w3.org/TR/2001/REC-SVG-20010904/DTD/svg10.dtd">
<svg version="1.0" xmlns="http://www.w3.org/2000/svg"
 width="800.000000pt" height="800.000000pt" viewBox="0 0 800.000000 800.000000"
 preserveAspectRatio="xMidYMid meet">
<metadata>
Created by potrace 1.11, written by Peter Selinger 2001-2013
</metadata>
<g transform="translate(0.000000,800.000000) scale(0.100000,-0.100000)"
fill="#000000" stroke="none">
<path d="M3889 7656 c-2 -2 -30 -6 -62 -10 -32 -3 -63 -9 -68 -12 -6 -3 -20
-7 -32 -9 -60 -7 -300 -106 -327 -135 -3 -3 -31 -22 -62 -44 -82 -55 -219
-191 -265 -263 -9 -15 -20 -30 -23 -33 -10 -8 -74 -123 -87 -155 -67 -173 -66
-170 -89 -310 -14 -88 -13 -298 1 -355 3 -14 9 -38 11 -55 9 -46 45 -154 72
-215 14 -30 26 -58 26 -62 1 -4 27 -48 59 -96 161 -245 414 -425 685 -488 37
-9 76 -18 87 -21 11 -2 81 -6 155 -8 233 -6 426 44 625 162 17 10 32 20 35 23
3 3 18 14 35 24 68 44 209 185 260 262 22 32 42 61 45 64 3 3 12 19 20 35 8
17 18 32 21 35 14 12 80 194 100 275 18 72 22 121 23 245 0 85 -3 170 -7 188
-4 17 -10 47 -13 65 -9 54 -62 202 -96 269 -65 130 -197 293 -303 377 -81 63
-285 182 -285 165 0 -4 -6 -2 -12 3 -15 12 -127 48 -183 58 -22 5 -47 10 -55
12 -21 6 -285 14 -291 9z"/>
<path d="M6401 5124 c-72 -13 -164 -37 -206 -54 -77 -31 -185 -85 -185 -92 0
-4 -5 -8 -11 -8 -35 0 -235 -174 -299 -258 -14 -19 -30 -39 -36 -45 -23 -25
-95 -156 -124 -226 -32 -75 -66 -192 -78 -271 -15 -95 -7 -317 13 -410 4 -14
8 -35 11 -48 6 -31 42 -127 67 -182 22 -49 97 -182 106 -190 3 -3 19 -23 36
-45 82 -112 265 -259 395 -318 109 -50 133 -59 228 -83 123 -32 325 -40 452
-19 86 14 216 50 235 65 6 4 25 11 43 15 17 3 32 11 32 16 0 5 6 9 13 9 17 0
158 88 209 130 59 48 173 160 163 160 -4 0 1 8 12 18 25 23 123 172 123 189 0
7 5 13 12 13 6 0 8 3 5 7 -4 3 -1 13 5 21 7 8 13 19 14 26 1 6 8 25 15 41 7
17 13 33 14 38 2 4 4 9 5 12 1 3 4 10 5 15 1 6 3 11 5 13 1 1 3 9 5 17 2 8 12
55 23 104 15 69 19 120 17 225 -1 75 -5 147 -8 161 -3 14 -8 43 -12 64 -19
111 -92 287 -159 385 -20 29 -36 55 -36 57 0 8 -54 67 -123 136 -151 150 -325
245 -547 299 -108 27 -331 33 -439 13z"/>
<path d="M1229 2605 c-74 -12 -162 -35 -217 -56 -15 -6 -28 -10 -29 -10 -18 2
-232 -122 -245 -143 -4 -6 -8 -8 -8 -3 0 16 -190 -165 -190 -182 0 -6 -4 -11
-9 -11 -13 0 -102 -134 -143 -215 -28 -55 -73 -176 -84 -227 -1 -5 -2 -9 -4
-10 -2 -3 -2 -4 -20 -132 -12 -84 -9 -240 5 -316 3 -19 8 -44 10 -55 22 -122
91 -286 162 -388 18 -26 33 -49 33 -52 0 -11 145 -163 200 -210 38 -31 118
-85 129 -85 6 0 11 -4 11 -9 0 -5 16 -15 35 -22 19 -7 35 -17 35 -21 0 -4 6
-8 13 -8 7 0 32 -9 55 -20 52 -25 198 -67 277 -79 64 -10 294 -7 360 4 122 21
302 90 399 153 23 15 46 29 53 32 36 16 191 161 243 228 14 18 30 38 35 45 49
59 151 264 156 312 0 6 5 16 11 23 6 6 8 12 4 12 -3 0 -1 11 4 25 36 94 50
367 25 485 -2 14 -7 36 -10 50 -4 14 -8 36 -11 49 -18 87 -131 329 -174 371
-3 3 -18 23 -35 45 -38 53 -196 205 -211 205 -7 0 -14 4 -16 8 -8 21 -143 97
-258 146 -45 19 -172 54 -225 61 -84 13 -292 13 -366 0z"/>
<path d="M3850 2610 c-105 -17 -129 -23 -212 -50 -92 -31 -243 -104 -268 -130
-3 -3 -18 -14 -35 -24 -41 -27 -47 -32 -133 -117 -84 -82 -96 -97 -151 -179
-20 -30 -39 -56 -43 -58 -5 -2 -8 -12 -8 -22 0 -9 -7 -23 -15 -30 -8 -6 -14
-15 -13 -18 1 -4 -6 -25 -16 -47 -23 -50 -55 -141 -62 -175 -51 -239 -38 -474
37 -676 12 -32 29 -69 36 -81 8 -12 15 -26 15 -30 -1 -12 61 -117 70 -121 4
-2 8 -8 8 -14 0 -5 6 -15 13 -23 6 -7 21 -26 32 -41 27 -38 129 -141 185 -186
52 -42 210 -141 210 -132 0 3 11 -1 24 -9 28 -19 183 -72 241 -83 22 -4 47 -9
55 -11 34 -9 279 -11 330 -3 104 17 183 36 250 61 42 16 223 109 230 118 3 4
18 15 33 24 121 77 282 267 361 425 29 58 81 208 91 262 3 19 9 51 13 70 12
61 7 312 -7 380 -33 161 -101 320 -189 445 -48 69 -155 184 -220 237 -116 95
-328 195 -477 223 -22 5 -47 10 -55 12 -30 8 -286 10 -330 3z"/>
<path d="M6400 2604 c-41 -7 -106 -23 -145 -35 -82 -25 -245 -98 -245 -110 0
-5 -6 -9 -13 -9 -8 0 -24 -8 -35 -17 -12 -10 -43 -34 -69 -53 -71 -51 -183
-169 -240 -252 -82 -118 -161 -303 -179 -417 -3 -18 -8 -43 -11 -55 -9 -38
-12 -280 -3 -326 4 -25 11 -58 14 -75 15 -85 44 -174 72 -228 8 -15 13 -27 10
-27 -6 0 93 -172 104 -180 3 -3 17 -21 30 -40 71 -103 271 -264 400 -323 138
-64 132 -62 295 -97 131 -28 342 -22 480 14 55 14 109 30 120 35 11 6 50 23
87 40 120 53 215 120 327 231 70 70 86 89 139 170 23 36 46 70 50 75 21 25 86
194 109 282 22 84 26 121 26 253 1 85 -2 173 -6 195 -4 22 -9 49 -11 60 -16
85 -81 262 -116 315 -9 14 -31 47 -48 73 -18 26 -32 50 -32 52 0 9 -54 69
-130 143 -144 142 -339 249 -535 293 -27 6 -59 13 -70 16 -49 12 -304 10 -375
-3z"/>
</g>
</svg>
